<?xml version="1.0" encoding="UTF-8" standalone="no"?>
<!-- Generator: Adobe Illustrator 12.0.0, SVG Export Plug-In . SVG Version: 6.00 Build 51448)  -->

<svg xmlns:dc="http://purl.org/dc/elements/1.1/" xmlns:cc="http://creativecommons.org/ns#" xmlns:rdf="http://www.w3.org/1999/02/22-rdf-syntax-ns#" xmlns:svg="http://www.w3.org/2000/svg" xmlns="http://www.w3.org/2000/svg" xmlns:sodipodi="http://sodipodi.sourceforge.net/DTD/sodipodi-0.dtd" xmlns:inkscape="http://www.inkscape.org/namespaces/inkscape" version="1.1" id="Layer_1" width="450.19507" height="600" viewBox="0 0 450.19507 600" overflow="visible" enable-background="new 0 0 577 769" xml:space="preserve" sodipodi:docname="us-404.svg" style="overflow:visible" inkscape:version="0.92.2 (5c3e80d, 2017-08-06)">
	<metadata id="metadata163">
		<rdf:RDF>
			<cc:Work rdf:about="">
				<dc:format>image/svg+xml</dc:format>
				<dc:type rdf:resource="http://purl.org/dc/dcmitype/StillImage" />
				<dc:title></dc:title>
			</cc:Work>
		</rdf:RDF>
	</metadata>
	<defs id="defs161">
		<style type="text/css">@import url('https://fonts.googleapis.com/css2?family=Roboto+Condensed:ital,wght@0,100..900;1,100..900&amp;family=Special+Gothic+Condensed+One&amp;display=swap');</style>
	</defs>
	<sodipodi:namedview pagecolor="#ffffff" bordercolor="#666666" borderopacity="1" objecttolerance="10" gridtolerance="10" guidetolerance="10" inkscape:pageopacity="0" inkscape:pageshadow="2" inkscape:window-width="1920" inkscape:window-height="1017" id="namedview159" showgrid="false" inkscape:zoom="1" inkscape:cx="295.34237" inkscape:cy="354.91085" inkscape:window-x="1912" inkscape:window-y="-8" inkscape:window-maximized="1" inkscape:current-layer="Layer_1" />
	<g id="g148" style="display:inline" transform="scale(0.78023407)">
		<g id="g14">
			<g id="g6">
				<path d="m 0.5,36.5 c 0,-19.882324 16.117676,-36 36,-36 h 504 c 19.88281,0 36,16.117676 36,36 v 696 c 0,19.88281 -16.11719,36 -36,36 h -504 c -19.882324,0 -36,-16.11719 -36,-36 z" id="path2" inkscape:connector-curvature="0" style="fill:#e0d6b5" />
				<path d="M 288.5,384.5" id="path4" inkscape:connector-curvature="0" style="fill:#e0d6b5" />
			</g>
			<g id="g12">
				<path stroke-miterlimit="3.863693" d="m 0.5,36.5 c 0,-19.882324 16.117676,-36 36,-36 h 504 c 19.88281,0 36,16.117676 36,36 v 696 c 0,19.88281 -16.11719,36 -36,36 h -504 c -19.882324,0 -36,-16.11719 -36,-36 z" id="path8" inkscape:connector-curvature="0" style="fill:none;stroke:#000000;stroke-linecap:round;stroke-linejoin:round;stroke-miterlimit:3.863693" />
				<path stroke-miterlimit="3.863693" d="M 288.5,384.5" id="path10" inkscape:connector-curvature="0" style="fill:none;stroke:#000000;stroke-linecap:round;stroke-linejoin:round;stroke-miterlimit:3.863693" />
			</g>
		</g>
		<g id="g22">
			<g id="g20">
				<path d="m 14.5,36.5 c 0,-12.150391 9.849609,-22 22,-22 h 504 c 12.15039,0 22,9.849609 22,22 v 696 c 0,12.15039 -9.84961,22 -22,22 h -504 c -12.150391,0 -22,-9.84961 -22,-22 z" id="path16" inkscape:connector-curvature="0" style="fill:#613314" />
				<path d="M 288.5,384.5" id="path18" inkscape:connector-curvature="0" style="fill:#613314" />
			</g>
		</g>
		<g id="g26">
			<path d="m 288.5,192.50342 c -14.86768,14.05127 -34.92773,22.6665 -57,22.6665 -22.07324,0 -42.13184,-8.61767 -57,-22.66992 l -78,80.77148 c 19.41602,14.39307 32,37.47852 32,63.5044 0,16.48779 -5.05127,31.79736 -13.69043,44.46289 C 103.29346,398.08789 96.5,418.55078 96.5,440.5 c 0,57.78711 46.68018,104.66992 104.39062,104.99805 33.27784,0 63.58545,11.61132 87.60938,31.00195 24.02344,-19.39063 54.33203,-31.00195 87.60937,-31.00195 C 433.82031,545.16992 480.5,498.28711 480.5,440.5 c 0,-21.94922 -6.79297,-42.41211 -18.30957,-59.26123 C 453.55176,368.57324 448.5,353.26367 448.5,336.77588 c 0,-26.02588 12.58398,-49.11133 32,-63.5044 L 402.5,192.5 c -14.86816,14.05225 -34.92676,22.66992 -57,22.66992 -22.07227,0 -42.13184,-8.61523 -57,-22.6665 z" id="path24" inkscape:connector-curvature="0" style="clip-rule:evenodd;fill:#ffffff;fill-rule:evenodd" />
		</g>
		<g id="g30">
			<path d="m 345.5,224.16992 c 21.25586,0 40.83789,-7.21777 56.41211,-19.32226 l 65.40332,67.72656 C 450.20703,288.62012 439.5,311.44775 439.5,336.77588 c 0,18.354 5.63184,35.4248 15.25781,49.5376 C 465.28906,401.72266 471.5,420.42773 471.5,440.5 c 0,52.83398 -42.67871,95.69922 -95.44141,95.99805 C 343.21582,536.50977 313.07617,547.1543 288.5,565.15039 263.91064,547.14551 233.75244,536.49805 200.89062,536.49805 148.15137,536.17187 105.5,493.31641 105.5,440.5 c 0,-20.07227 6.21143,-38.77734 16.74219,-54.18652 9.62646,-14.1128 15.25781,-31.1836 15.25781,-49.5376 0,-25.32813 -10.70654,-48.15576 -27.81543,-64.20166 l 65.40332,-67.72656 c 15.57471,12.10449 35.15723,19.32226 56.41211,19.32226 21.52246,0 41.33105,-7.39892 57,-19.78027 15.66895,12.38135 35.47852,19.78027 57,19.78027 z" id="path28" inkscape:connector-curvature="0" style="clip-rule:evenodd;fill-rule:evenodd" />
		</g>
		<g id="g64">
			<g id="g34">
				<polygon points="118.53271,58.160156 118.53271,150.84033 105.25342,150.84033 105.25342,108.92676 79.800781,108.92676 79.800781,150.84033 66.521484,150.84033 66.521484,58.160156 79.800781,58.160156 79.800781,95.923828 105.25342,95.923828 105.25342,58.160156 " id="polygon32" style="clip-rule:evenodd;fill:#e0d6b5;fill-rule:evenodd" />
			</g>
			<g id="g38">
				<rect x="138.79688" y="58.160156" width="13.00293" height="92.680176" id="rect36" style="clip-rule:evenodd;fill:#e0d6b5;fill-rule:evenodd" />
			</g>
			<g id="g42">
				<path d="m 219.51074,125.52588 c 0,3.78125 -0.66894,7.30859 -2.00586,10.58203 -1.3374,3.27393 -3.18164,6.10986 -5.5332,8.50732 -2.35156,2.39795 -5.07227,4.31153 -8.16162,5.74073 -3.08936,1.42968 -6.43213,2.14404 -10.02881,2.14404 -4.05762,0 -7.7002,-0.78369 -10.92773,-2.35156 -3.22754,-1.56739 -5.94825,-3.68897 -8.16163,-6.3628 -2.21289,-2.6748 -3.91894,-5.76416 -5.11816,-9.26806 -1.19873,-3.5044 -1.79834,-7.14697 -1.79834,-10.92822 h 13.00293 c 0,1.93652 0.25391,3.85009 0.76123,5.74072 0.50684,1.89062 1.29102,3.59668 2.35156,5.11816 1.06055,1.52149 2.39746,2.74365 4.01123,3.66553 1.61377,0.92187 3.57373,1.3833 5.87891,1.3833 1.75244,0 3.43555,-0.36865 5.04932,-1.10645 1.61377,-0.73779 2.99707,-1.75244 4.1499,-3.04345 1.15234,-1.29102 2.07471,-2.78955 2.7666,-4.49561 0.69141,-1.70605 1.03711,-3.48095 1.03711,-5.32568 0,-2.67432 -0.55322,-5.04883 -1.65967,-7.12402 -1.10693,-2.07471 -3.04346,-4.17286 -5.81006,-6.29395 -0.46093,-0.46094 -0.6455,-0.71436 -0.55322,-0.76074 0.0923,-0.0459 -0.18457,-0.29932 -0.83008,-0.76074 -0.64551,-0.46094 -2.00537,-1.36036 -4.08056,-2.69776 -2.0752,-1.33691 -5.46387,-3.61914 -10.167,-6.84668 -3.78125,-2.582029 -6.6167,-5.602537 -8.50732,-9.060545 -1.89063,-3.458496 -2.83594,-7.262695 -2.83594,-11.412109 0,-3.319824 0.59961,-6.432129 1.79834,-9.337402 1.19922,-2.904786 2.88184,-5.464356 5.04883,-7.677247 2.16748,-2.21289 4.68018,-3.942382 7.53906,-5.187011 C 189.58545,57.122559 192.6748,56.5 195.99463,56.5 c 3.31982,0 6.38623,0.599609 9.19873,1.79834 2.8125,1.19873 5.25684,2.858398 7.33154,4.97998 2.07471,2.121094 3.73487,4.656739 4.97998,7.607911 1.24512,2.951171 1.91309,6.17871 2.00586,9.683105 h -12.72656 c -0.18457,-3.227539 -1.29102,-5.810059 -3.31982,-7.746582 -2.02881,-1.936523 -4.51856,-2.904785 -7.46973,-2.904785 -3.04346,0 -5.62549,1.014648 -7.74658,3.043457 -2.12061,2.028808 -3.18116,4.564453 -3.18116,7.60791 0,2.305176 0.59913,4.242188 1.79786,5.80957 1.19922,1.567871 3.50439,3.319825 6.9165,5.256836 8.94531,5.164063 15.46973,10.420408 19.57373,15.769048 4.10352,5.34912 6.15576,11.38916 6.15576,18.12109 z" id="path40" inkscape:connector-curvature="0" style="clip-rule:evenodd;fill:#e0d6b5;fill-rule:evenodd" />
			</g>
			<g id="g46">
				<polygon points="275.25488,58.160156 275.25488,70.471191 258.37891,70.471191 258.37891,150.84033 244.96094,150.84033 244.96094,70.471191 228.08496,70.471191 228.08496,58.160156 " id="polygon44" style="clip-rule:evenodd;fill:#e0d6b5;fill-rule:evenodd" />
			</g>
			<g id="g50">
				<path d="m 340.54492,104.36182 c 0,7.10058 -0.39258,13.14111 -1.17578,18.12109 -0.78418,4.97949 -2.14453,9.68311 -4.08105,14.10938 -2.30567,5.5332 -5.1875,9.56787 -8.64551,12.10351 -3.45801,2.53613 -7.81543,3.8042 -13.07227,3.8042 -5.5332,0 -10.02832,-1.26807 -13.48633,-3.8042 -3.45898,-2.53564 -6.33984,-6.57031 -8.64648,-12.10351 -1.93555,-4.51856 -3.29639,-9.24512 -4.08008,-14.17872 -0.78369,-4.93359 -1.17578,-10.95117 -1.17578,-18.05175 0,-7.009281 0.3916,-13.025882 1.17578,-18.051761 0.78369,-5.026368 2.14453,-9.752442 4.08008,-14.178711 2.39844,-5.533692 5.32617,-9.521973 8.78418,-11.965332 3.45801,-2.443848 7.9082,-3.666016 13.34863,-3.666016 5.34961,0 9.72949,1.222168 13.1416,3.666016 3.41211,2.443359 6.27051,6.524414 8.57618,12.241699 0.92285,2.305664 1.72949,4.611328 2.42089,6.916504 0.69141,2.305664 1.24512,4.726074 1.66016,7.262207 0.41406,2.536133 0.71484,5.256347 0.89844,8.161621 0.18554,2.904785 0.27734,6.109373 0.27734,9.613773 z m -12.72656,0 c 0,-2.58203 -0.0693,-4.933597 -0.20703,-7.054691 -0.13867,-2.121094 -0.32324,-4.081055 -0.55371,-5.878906 -0.23047,-1.79834 -0.53028,-3.527832 -0.89942,-5.1875 -0.36914,-1.659668 -0.7832,-3.319825 -1.24414,-4.979981 -1.19922,-4.149902 -2.69726,-7.146973 -4.49609,-8.991211 -1.79883,-1.844726 -4.08106,-2.766601 -6.84766,-2.766601 -5.71679,0 -9.63672,3.827148 -11.75781,11.481445 -1.10645,3.503906 -1.86719,7.031738 -2.28223,10.582031 -0.41504,3.550293 -0.62207,7.907227 -0.62207,13.071774 0,2.49024 0.0684,4.77246 0.20703,6.84766 0.13868,2.07471 0.32227,4.01123 0.55274,5.80957 0.23047,1.79834 0.53125,3.57373 0.90039,5.3252 0.36816,1.75293 0.7832,3.55078 1.24414,5.3955 2.12109,7.65381 6.04102,11.48096 11.75781,11.48096 2.7666,0 5.04883,-0.92187 6.84766,-2.7666 1.79883,-1.84424 3.29687,-4.74902 4.49609,-8.71436 0.55274,-1.84472 1.01367,-3.61963 1.38281,-5.32568 0.36915,-1.70606 0.66797,-3.48145 0.89844,-5.32568 0.23145,-1.84473 0.39258,-3.8042 0.48438,-5.87891 0.0928,-2.0752 0.13867,-4.4502 0.13867,-7.12402 z" id="path48" inkscape:connector-curvature="0" style="clip-rule:evenodd;fill:#e0d6b5;fill-rule:evenodd" />
			</g>
			<g id="g54">
				<path d="M 397.39746,150.84033 385.08594,107.2666 h -12.72559 v 43.57373 H 359.08008 V 58.160156 h 27.66601 c 3.59668,0 6.89356,0.599121 9.89063,1.79834 2.99707,1.198242 5.5791,2.858398 7.74609,4.979492 2.16797,2.121094 3.82715,4.726563 4.98047,7.815918 1.15235,3.089356 1.72852,6.478028 1.72852,10.166992 0,5.533204 -1.10645,10.23584 -3.31934,14.109375 -2.21387,3.873047 -5.5332,6.639647 -9.95996,8.299807 l 13.2793,45.51025 z m 0.69238,-67.919432 c 0,-3.596679 -1.10742,-6.455566 -3.32031,-8.576172 -2.21289,-2.121093 -5.11816,-3.18164 -8.71484,-3.18164 h -13.69434 v 23.377441 h 13.69434 c 3.87304,0 6.84765,-0.991699 8.92187,-2.974121 2.0752,-1.98291 3.11328,-4.864746 3.11328,-8.645508 z" id="path52" inkscape:connector-curvature="0" style="clip-rule:evenodd;fill:#e0d6b5;fill-rule:evenodd" />
			</g>
			<g id="g58">
				<rect x="426.86035" y="58.160156" width="13.00293" height="92.680176" id="rect56" style="clip-rule:evenodd;fill:#e0d6b5;fill-rule:evenodd" />
			</g>
			<g id="g62">
				<path d="m 497.19922,82.920898 c -1.38281,-8.945312 -5.07227,-13.417968 -11.06641,-13.417968 -2.67383,0 -4.95703,0.576172 -6.84765,1.729003 -1.89063,1.152832 -3.41211,2.997071 -4.56446,5.533204 -1.15234,2.536132 -1.98242,5.878906 -2.49023,10.028808 -0.50684,4.149902 -0.75977,9.222168 -0.75977,15.216305 0,13.37159 1.22071,22.96241 3.66504,28.77246 2.44434,5.80957 6.52442,8.71436 12.24219,8.71436 1.93652,0 3.52734,-0.36865 4.77246,-1.10645 1.24414,-0.73779 2.25977,-1.729 3.04297,-2.97412 0.78418,-1.24511 1.31445,-2.67431 1.59082,-4.28808 0.27637,-1.61377 0.41504,-3.29688 0.41504,-5.04932 h 13.2793 c -0.0918,3.87354 -0.73731,7.42383 -1.93653,10.65137 -1.19824,3.22803 -2.8125,6.01758 -4.84082,8.36914 -2.02929,2.35107 -4.45019,4.17285 -7.26269,5.46387 -2.8125,1.29101 -5.83301,1.93652 -9.06055,1.93652 -9.95996,0 -17.22168,-4.05762 -21.78613,-12.17285 -4.56543,-8.11524 -6.84766,-20.74902 -6.84766,-37.90235 0,-15.123531 2.30469,-26.559077 6.91602,-34.305171 C 470.27148,60.373535 477.1875,56.5 486.41016,56.5 c 3.78027,0 7.23828,0.807129 10.37402,2.420898 3.13574,1.61377 5.76367,3.942383 7.88477,6.985352 1.75195,2.305664 3.04394,4.657227 3.87304,7.055176 0.83008,2.397461 1.47559,5.717285 1.93653,9.959472 z" id="path60" inkscape:connector-curvature="0" style="clip-rule:evenodd;fill:#e0d6b5;fill-rule:evenodd" />
			</g>
		</g>
		<g id="g86">
			<g id="g68">
				<path d="M 171.30322,710.83984 158.99219,667.2666 h -12.72657 v 43.57324 h -13.27929 v -92.67968 h 27.66553 c 3.59668,0 6.89355,0.59961 9.89062,1.79882 2.99707,1.19727 5.5791,2.85743 7.74658,4.97852 2.16699,2.12109 3.82666,4.72656 4.97949,7.81641 1.15284,3.08886 1.7295,6.47851 1.7295,10.16699 0,5.5332 -1.10694,10.23535 -3.32032,14.10937 -2.21289,3.87305 -5.5332,6.63965 -9.95947,8.29981 l 13.27979,45.50976 z m 0.6919,-67.91894 c 0,-3.59668 -1.10694,-6.45606 -3.32032,-8.57617 -2.21289,-2.1211 -5.11816,-3.18164 -8.71435,-3.18164 h -13.69483 v 23.37695 h 13.69483 c 3.87305,0 6.84717,-0.99121 8.92236,-2.97363 2.07471,-1.98243 3.11231,-4.86426 3.11231,-8.64551 z" id="path66" inkscape:connector-curvature="0" style="clip-rule:evenodd;fill:#e0d6b5;fill-rule:evenodd" />
			</g>
			<g id="g72">
				<path d="m 253.46924,664.36133 c 0,7.10156 -0.39209,13.1416 -1.17627,18.12109 -0.78369,4.98047 -2.14404,9.6836 -4.08057,14.10938 -2.30517,5.5332 -5.18701,9.56836 -8.64551,12.10449 -3.458,2.53613 -7.81543,3.80371 -13.07177,3.80371 -5.53321,0 -10.02881,-1.26758 -13.48731,-3.80371 -3.45801,-2.53613 -6.33984,-6.57129 -8.64551,-12.10449 -1.93652,-4.51856 -3.29687,-9.24414 -4.08056,-14.17774 -0.78369,-4.93359 -1.17578,-10.95117 -1.17578,-18.05273 0,-7.00879 0.39209,-13.02539 1.17578,-18.05176 0.78369,-5.02539 2.14404,-9.75195 4.08056,-14.17871 2.39795,-5.5332 5.32569,-9.52149 8.78418,-11.96484 3.45801,-2.44336 7.90772,-3.66602 13.34864,-3.66602 5.34863,0 9.729,1.22266 13.14111,3.66602 3.41211,2.44335 6.271,6.52441 8.57617,12.24218 0.92237,2.30469 1.72901,4.61133 2.4209,6.91602 0.6919,2.30566 1.24512,4.72656 1.65967,7.26172 0.41504,2.53711 0.71484,5.25683 0.89941,8.16211 0.18457,2.90429 0.27686,6.10937 0.27686,9.61328 z m -12.72656,0 c 0,-2.58203 -0.0688,-4.9336 -0.20752,-7.05469 -0.13819,-2.12109 -0.32276,-4.08008 -0.55323,-5.87891 -0.23047,-1.79785 -0.53027,-3.52734 -0.89892,-5.1875 -0.36914,-1.65918 -0.78418,-3.31933 -1.24512,-4.97949 -1.19873,-4.14941 -2.69727,-7.14746 -4.4956,-8.99121 -1.79834,-1.84473 -4.08057,-2.7666 -6.84717,-2.7666 -5.71778,0 -9.63672,3.82715 -11.75782,11.48144 -1.10693,3.50391 -1.86767,7.03125 -2.28271,10.58204 -0.41504,3.55078 -0.62256,7.90722 -0.62256,13.07226 0,2.49024 0.0693,4.77149 0.20752,6.84668 0.13867,2.0752 0.32275,4.01172 0.55322,5.80957 0.23096,1.79883 0.53028,3.57422 0.89942,5.32617 0.36865,1.75196 0.78369,3.55079 1.24511,5.39454 2.1211,7.65429 6.04004,11.48144 11.75782,11.48144 2.7666,0 5.04883,-0.92187 6.84717,-2.7666 1.79833,-1.84375 3.29687,-4.74902 4.4956,-8.71485 0.55322,-1.84375 1.01465,-3.61914 1.3833,-5.32519 0.36914,-1.70606 0.66846,-3.48145 0.89893,-5.32617 0.23095,-1.84375 0.39209,-3.80371 0.48437,-5.87891 0.0923,-2.07519 0.13819,-4.44922 0.13819,-7.12402 z" id="path70" inkscape:connector-curvature="0" style="clip-rule:evenodd;fill:#e0d6b5;fill-rule:evenodd" />
			</g>
			<g id="g76">
				<path d="m 324.0166,683.17383 c 0,1.84472 -0.0693,3.50488 -0.20801,4.98047 -0.13769,1.47558 -0.3457,2.83593 -0.62207,4.08008 -0.27636,1.24609 -0.6455,2.46777 -1.10644,3.66601 -0.46094,1.19922 -1.01465,2.39844 -1.66016,3.59668 -2.30469,3.78125 -5.46387,6.89356 -9.47558,9.33691 -4.01075,2.44434 -8.23047,3.66602 -12.65723,3.66602 -4.61133,0 -8.96777,-1.19922 -13.07178,-3.59668 -4.10351,-2.39746 -7.3081,-5.5332 -9.61377,-9.40625 -0.64551,-1.19824 -1.19873,-2.39746 -1.66015,-3.59668 -0.46094,-1.19824 -0.82959,-2.41992 -1.10645,-3.66602 -0.27637,-1.24414 -0.48437,-2.60449 -0.62256,-4.08007 -0.13818,-1.47559 -0.20752,-3.13575 -0.20752,-4.98047 v -65.01367 h 13.27979 v 66.67382 c 0,4.42676 1.19873,7.97754 3.59619,10.65137 2.39844,2.67481 5.5332,4.01172 9.40625,4.01172 3.59668,0 6.57031,-1.33691 8.92187,-4.01172 2.35157,-2.67383 3.52832,-6.22461 3.52832,-10.65137 v -66.67382 h 13.2793 z" id="path74" inkscape:connector-curvature="0" style="clip-rule:evenodd;fill:#e0d6b5;fill-rule:evenodd" />
			</g>
			<g id="g80">
				<polygon points="384.25781,618.16016 384.25781,630.4707 367.38086,630.4707 367.38086,710.83984 353.96289,710.83984 353.96289,630.4707 337.08789,630.4707 337.08789,618.16016 " id="polygon78" style="clip-rule:evenodd;fill:#e0d6b5;fill-rule:evenodd" />
			</g>
			<g id="g84">
				<polygon points="444.01367,697.83789 444.01367,710.83984 396.84375,710.83984 396.84375,618.16016 440.41797,618.16016 440.41797,631.16309 410.12305,631.16309 410.12305,654.54004 429.35156,654.54004 429.35156,667.2666 410.12305,667.2666 410.12305,697.83789 " id="polygon82" style="clip-rule:evenodd;fill:#e0d6b5;fill-rule:evenodd" />
			</g>
		</g>
		<g id="g90">
			<path d="m 430.4707,312.5 c -1.94043,7.77246 -2.9707,15.90479 -2.9707,24.27588 0,20.84326 6.40625,40.26269 17.34766,56.3042 C 454.06641,406.56836 459.5,422.93164 459.5,440.5 c 0,46.22949 -37.34375,83.73633 -83.50977,83.99902 -32.36914,0.0225 -62.33203,9.61719 -87.49023,26.06153 -25.18848,-16.46485 -55.19531,-26.0625 -87.60938,-26.0625 C 154.77979,524.17285 117.5,486.69043 117.5,440.5 c 0,-17.56738 5.43457,-33.93164 14.65234,-47.41992 10.94239,-16.04151 17.34766,-35.46094 17.34766,-56.3042 0,-8.37158 -1.03027,-16.50342 -2.96973,-24.27588 z" id="path88" inkscape:connector-curvature="0" style="fill:#ffffff" />
		</g>
		<g id="g94">
			<path d="m 400.37207,220.52734 50.36621,52.15577 c -6.88867,8.24511 -12.48047,17.62451 -16.45117,27.81689 H 142.7124 c -3.97021,-10.19238 -9.56152,-19.57178 -16.45068,-27.81689 l 50.36621,-52.15577 c 15.92871,9.90918 34.74658,15.64258 54.87207,15.64258 21.02881,0 40.63037,-6.25879 57,-17 16.37012,10.74121 35.97168,17 57,17 20.12598,0 38.94336,-5.7334 54.87207,-15.64258 z" id="path92" inkscape:connector-curvature="0" style="fill:#ffffff" />
		</g>
		<g id="g136">
			<g id="g98">
				<path d="m 203.11816,278.70215 c 0,0.76855 -0.01,1.40234 -0.0293,1.90185 -0.019,0.49952 -0.0478,0.93213 -0.0864,1.29688 -0.0381,0.36523 -0.0957,0.70166 -0.17285,1.00879 -0.0767,0.30713 -0.17285,0.63428 -0.28809,0.97998 -0.30713,1.42139 -1.07568,2.54492 -2.30566,3.37158 -1.22949,0.82617 -2.7085,1.23926 -4.43799,1.23926 -1.95947,0 -3.56348,-0.41309 -4.8125,-1.23926 -1.24902,-0.82666 -2.18066,-2.14258 -2.79541,-3.94824 -0.53808,-1.61377 -0.94141,-3.69824 -1.21045,-6.25342 -0.26904,-2.55518 -0.40332,-5.38916 -0.40332,-8.50195 0,-0.8833 0.019,-1.84375 0.0576,-2.88135 0.0381,-1.0376 0.10547,-2.08447 0.20166,-3.14111 0.0962,-1.05664 0.20166,-2.06543 0.31689,-3.02637 0.11524,-0.96045 0.25,-1.82471 0.40381,-2.59326 0.49951,-2.95899 1.37354,-5.07227 2.62207,-6.34033 1.24903,-1.26758 3.02588,-1.90186 5.33155,-1.90186 2.19043,0 3.958,0.64355 5.30273,1.93066 1.34473,1.2876 2.11328,3.12207 2.30566,5.5044 h -5.01464 c -0.0772,-0.80664 -0.33643,-1.41211 -0.77832,-1.81543 -0.44141,-0.40332 -0.98926,-0.60498 -1.64258,-0.60498 -0.88379,0 -1.5752,0.30713 -2.07471,0.92187 -0.49951,0.61475 -0.90283,1.55616 -1.21045,2.82422 -0.19238,0.76856 -0.33642,1.54688 -0.43213,2.33447 -0.0962,0.78711 -0.17334,1.61377 -0.23095,2.47803 -0.0576,0.86475 -0.0957,1.81592 -0.11524,2.85352 -0.019,1.03711 -0.0288,2.18994 -0.0288,3.45752 0,1.34521 0.01,2.52685 0.0288,3.54492 0.0195,1.01855 0.0576,1.94043 0.11524,2.7666 0.0576,0.82617 0.13476,1.61377 0.23095,2.36328 0.0957,0.74951 0.23975,1.52735 0.43213,2.33447 0.30762,1.26758 0.70117,2.23829 1.18164,2.91065 0.47998,0.67236 1.12403,1.0083 1.93067,1.0083 0.88378,0 1.53711,-0.36475 1.95947,-1.09473 0.42285,-0.72998 0.63428,-1.95996 0.63428,-3.68896 z" id="path96" inkscape:connector-curvature="0" style="clip-rule:evenodd;fill-rule:evenodd" />
			</g>
			<g id="g102">
				<path d="m 223.23828,287.80859 -2.19043,-10.31689 h -6.33984 l -2.19043,10.31689 h -5.01416 l 7.89599,-38.6167 h 4.95704 l 8.01171,38.6167 z m -5.30273,-25.47509 -2.13233,10.14404 h 4.1499 z" id="path100" inkscape:connector-curvature="0" style="clip-rule:evenodd;fill-rule:evenodd" />
			</g>
			<g id="g106">
				<polygon points="248.36621,283.31299 248.36621,287.80859 233.61133,287.80859 233.61133,249.19189 238.51025,249.19189 238.51025,283.31299 " id="polygon104" style="clip-rule:evenodd;fill-rule:evenodd" />
			</g>
			<g id="g110">
				<rect x="253.7627" y="249.19189" width="4.8989258" height="38.616699" id="rect108" style="clip-rule:evenodd;fill-rule:evenodd" />
			</g>
			<g id="g114">
				<polygon points="267.14941,287.80859 267.14941,249.19189 281.90479,249.19189 281.90479,254.20654 272.04883,254.20654 272.04883,264.12012 277.69727,264.12012 277.69727,269.24951 272.04883,269.24951 272.04883,287.80859 " id="polygon112" style="clip-rule:evenodd;fill-rule:evenodd" />
			</g>
			<g id="g118">
				<path d="m 304.07324,268.44287 c 0,1.0376 0,2.25733 0,3.65967 0,1.40283 -0.0674,2.85351 -0.20215,4.35156 -0.13379,1.49902 -0.36425,2.96875 -0.6914,4.40918 -0.32617,1.44141 -0.82617,2.72852 -1.49805,3.86182 -0.67285,1.13379 -1.53711,2.04638 -2.59375,2.73779 -1.05664,0.6919 -2.37305,1.0376 -3.94824,1.0376 -1.61426,0 -2.94922,-0.3457 -4.00586,-1.0376 -1.05664,-0.69141 -1.9209,-1.604 -2.59375,-2.73779 -0.67236,-1.1333 -1.17188,-2.42041 -1.49854,-3.86182 -0.32666,-1.44043 -0.54736,-2.91016 -0.66259,-4.40918 -0.11524,-1.49805 -0.17286,-2.93945 -0.17286,-4.32226 0,-1.3833 0,-2.61329 0,-3.68897 0,-1.11426 0,-2.37256 0,-3.77539 0,-1.40283 0.0669,-2.8335 0.20166,-4.29394 0.13428,-1.45997 0.37452,-2.89112 0.72022,-4.29395 0.3457,-1.40234 0.84521,-2.65137 1.49853,-3.74609 0.65284,-1.09522 1.50831,-1.97901 2.56495,-2.65137 1.05664,-0.67236 2.37304,-1.00879 3.94824,-1.00879 1.57519,0 2.8916,0.33643 3.94824,1.00879 1.05664,0.67236 1.9209,1.56592 2.59375,2.67969 0.67188,1.11474 1.17188,2.37304 1.49805,3.77539 0.32715,1.40283 0.55761,2.83349 0.6914,4.29394 0.13477,1.46045 0.20215,2.8916 0.20215,4.29395 0,1.40283 0,2.6416 0,3.71777 z m -5.12988,0 c 0,-0.53808 -0.01,-1.26807 -0.0293,-2.19043 -0.0186,-0.92187 -0.0664,-1.93066 -0.14355,-3.02588 -0.0772,-1.09472 -0.19239,-2.20947 -0.34571,-3.34277 -0.15332,-1.13379 -0.37402,-2.16162 -0.66308,-3.08399 -0.28809,-0.92187 -0.64356,-1.67089 -1.06641,-2.24755 -0.42187,-0.57618 -0.9414,-0.86426 -1.55566,-0.86426 -0.72949,0 -1.33496,0.29736 -1.81543,0.89258 -0.48047,0.59619 -0.86524,1.36474 -1.15235,2.30615 -0.28906,0.9414 -0.5,1.98828 -0.63476,3.14111 -0.13477,1.15283 -0.23047,2.27686 -0.28809,3.37158 -0.0576,1.09522 -0.0771,2.09424 -0.0576,2.99707 0.0195,0.90332 0.0293,1.58545 0.0293,2.04639 0,0.42285 -0.01,1.08545 -0.0293,1.98828 -0.0195,0.90332 0,1.91162 0.0576,3.02588 0.0576,1.11426 0.15332,2.26709 0.28809,3.4585 0.13476,1.19092 0.3457,2.26709 0.63476,3.22705 0.28711,0.96094 0.67188,1.7583 1.15235,2.39258 0.48047,0.63379 1.08594,0.95068 1.81543,0.95068 0.72949,0 1.32519,-0.31689 1.78613,-0.95068 0.46192,-0.63428 0.83594,-1.43164 1.125,-2.39258 0.28711,-0.95996 0.48926,-2.03613 0.60449,-3.22705 0.11524,-1.19141 0.20215,-2.34424 0.25879,-3.4585 0.0586,-1.11426 0.0781,-2.12256 0.0586,-3.02588 -0.0195,-0.90283 -0.0293,-1.56543 -0.0293,-1.98828 z" id="path116" inkscape:connector-curvature="0" style="clip-rule:evenodd;fill-rule:evenodd" />
			</g>
			<g id="g122">
				<path d="m 327.91406,260.02783 c 0,2.18994 -0.31738,3.93848 -0.95117,5.24512 -0.63379,1.30615 -1.66211,2.40137 -3.08398,3.28467 l 3.91992,19.25097 h -5.01465 l -4.37988,-18.04004 h -2.24805 v 18.04004 h -4.89941 v -38.6167 h 7.60839 c 6.03223,0 9.04883,3.61231 9.04883,10.83594 z m -5.01465,-0.11523 c 0,-2.19043 -0.29785,-3.68897 -0.89355,-4.49561 -0.5957,-0.80713 -1.73828,-1.21045 -3.42969,-1.21045 h -2.41992 v 10.54737 h 3.22754 c 1.34473,0 2.2666,-0.34571 2.7666,-1.03711 0.49902,-0.6919 0.74902,-1.95996 0.74902,-3.8042 z" id="path120" inkscape:connector-curvature="0" style="clip-rule:evenodd;fill-rule:evenodd" />
			</g>
			<g id="g126">
				<polygon points="345.84375,268.44287 345.84375,249.19189 350.74316,249.19189 350.74316,287.80859 346.53516,287.80859 338.98535,264.92676 338.98535,287.80859 334.08594,287.80859 334.08594,249.19189 338.98535,249.19189 " id="polygon124" style="clip-rule:evenodd;fill-rule:evenodd" />
			</g>
			<g id="g130">
				<rect x="359.16992" y="249.19189" width="4.8984375" height="38.616699" id="rect128" style="clip-rule:evenodd;fill-rule:evenodd" />
			</g>
			<g id="g134">
				<path d="m 385.29492,287.80859 -2.19043,-10.31689 h -6.34082 l -2.18945,10.31689 h -5.01465 l 7.89551,-38.6167 h 4.95703 l 8.01172,38.6167 z m -5.30273,-25.47509 -2.13282,10.14404 h 4.14942 z" id="path132" inkscape:connector-curvature="0" style="clip-rule:evenodd;fill-rule:evenodd" />
			</g>
		</g>
		<g id="g146">
			<g id="g140">
				<path d="m 283.87451,345.47705 c 0,1.9541 -0.18213,3.74463 -0.5459,5.37354 -0.36377,1.62841 -0.94824,3.17041 -1.75293,4.62646 -1.64746,2.72022 -3.86963,4.88477 -6.6665,6.49414 -2.79688,1.60938 -5.80469,2.41358 -9.02344,2.41358 -1.5708,0 -3.13183,-0.21045 -4.68359,-0.63184 -1.55176,-0.42139 -3.00781,-1.01563 -4.36817,-1.78174 -1.35986,-0.76611 -2.61474,-1.70508 -3.76416,-2.8164 -1.14941,-1.11084 -2.10693,-2.33692 -2.87353,-3.67774 -0.80469,-1.49414 -1.4082,-3.0459 -1.81055,-4.65527 -0.40234,-1.60938 -0.60303,-3.39063 -0.60303,-5.34473 v -20.2876 h 7.29883 v 20.2876 c 0,1.34082 0.12451,2.49024 0.37354,3.44824 0.24902,0.95752 0.62256,1.87744 1.1206,2.7583 0.95752,1.60938 2.27002,2.8833 3.93702,3.82178 1.6665,0.93897 3.45751,1.4082 5.37304,1.4082 1.91602,0 3.70703,-0.46923 5.37403,-1.4082 1.6665,-0.93848 2.94043,-2.2124 3.82177,-3.82178 0.53614,-0.88086 0.91944,-1.80078 1.14942,-2.7583 0.22998,-0.958 0.34472,-2.10742 0.34472,-3.44824 v -20.2876 h 7.29883 z" id="path138" inkscape:connector-curvature="0" style="clip-rule:evenodd;fill-rule:evenodd" />
			</g>
			<g id="g144">
				<path d="m 329.21777,352.77588 c 0,3.67822 -1.47558,6.53223 -4.4248,8.56299 -2.95117,2.03076 -7.10742,3.0459 -12.47168,3.0459 -1.9541,0 -3.78418,-0.10498 -5.48926,-0.31592 -1.70508,-0.21094 -3.33301,-0.5459 -4.88476,-1.00586 -1.55079,-0.45947 -3.0459,-1.06299 -4.48243,-1.81006 -1.4375,-0.74756 -2.88281,-1.63818 -4.33984,-2.67236 l 4.19629,-5.97705 c 1.14941,0.76611 2.2793,1.42675 3.39062,1.98242 1.11133,0.55566 2.25098,1.00586 3.41895,1.35058 1.16894,0.34522 2.39453,0.59375 3.67871,0.74707 1.28418,0.15332 2.69141,0.22998 4.22363,0.22998 3.25782,0 5.73828,-0.36377 7.44336,-1.09179 1.70508,-0.72803 2.55664,-1.83887 2.55664,-3.3335 0,-0.80469 -0.33496,-1.58057 -1.00586,-2.32764 -0.66992,-0.74707 -1.56054,-1.33105 -2.67187,-1.75293 -0.91992,-0.30615 -2.04981,-0.62255 -3.39063,-0.94824 -1.34179,-0.32568 -3.25683,-0.71826 -5.74707,-1.17773 -1.45605,-0.30664 -2.73925,-0.60401 -3.85058,-0.89112 -1.11133,-0.2871 -2.08789,-0.60351 -2.93164,-0.94824 -0.8418,-0.34472 -1.58008,-0.71826 -2.21289,-1.1206 -0.63086,-0.40235 -1.19727,-0.85254 -1.69532,-1.35059 -1.99218,-2.03076 -2.98828,-4.29101 -2.98828,-6.78174 0,-4.06103 2.16504,-6.99218 6.49414,-8.79297 1.3418,-0.61328 2.82617,-1.08252 4.45508,-1.4082 1.62793,-0.32568 3.24609,-0.48828 4.85547,-0.48828 2.7207,0 5.32617,0.37354 7.81641,1.12061 2.49023,0.74707 5.01953,1.90625 7.58593,3.47705 l -3.9082,6.09179 c -1.95312,-1.22607 -3.84961,-2.06884 -5.68945,-2.52881 -1.83887,-0.45947 -3.94629,-0.68945 -6.32227,-0.68945 -2.71972,0 -4.73047,0.23926 -6.0332,0.71826 -1.30274,0.47901 -1.95508,1.27393 -1.95508,2.38526 0,0.84277 0.37402,1.52295 1.12109,2.04004 0.74708,0.51709 1.6377,0.9292 2.67188,1.23584 1.03516,0.30664 2.08887,0.52685 3.16211,0.66064 1.07226,0.13428 1.91504,0.25879 2.52832,0.37402 2.22168,0.42139 4.33887,0.92871 6.35059,1.52246 2.01171,0.59424 3.62988,1.2168 4.85546,1.86817 1.76368,0.95752 3.15235,2.33691 4.16797,4.13769 1.01465,1.80079 1.52246,3.75489 1.52246,5.86231 z" id="path142" inkscape:connector-curvature="0" style="clip-rule:evenodd;fill-rule:evenodd" />
			</g>
		</g>
	</g>
	<text xml:space="preserve" sodipodi:role="line" x="-122" y="395" style="font-family: inherit; font-variant:normal; font-stretch:normal; font-size:143.56306458px; line-height:1.25; font-variant-ligatures:normal; font-variant-caps:normal; font-variant-numeric:normal; font-feature-settings:normal; text-align:start; letter-spacing:0px; word-spacing:0px; writing-mode:lr-tb; text-anchor:start; fill:inherit; fill-opacity:1; stroke:none; stroke-width:0.7802341" id="text972">
		<tspan id="tspan970" style="font-family: 'Roboto Condensed', sans-serif;font-weight:500;">
			404
		</tspan>
	</text>
</svg>
